<?xml version="1.0" standalone="no"?>
<!DOCTYPE svg PUBLIC "-//W3C//DTD SVG 20010904//EN"
 "http://www.w3.org/TR/2001/REC-SVG-20010904/DTD/svg10.dtd">
<svg version="1.0" xmlns="http://www.w3.org/2000/svg"
 width="240.000000pt" height="72.000000pt" viewBox="0 0 240.000000 72.000000"
 preserveAspectRatio="xMidYMid meet">

<g transform="translate(0.000000,72.000000) scale(0.100000,-0.100000)"
fill="#000000" stroke="none">
<path d="M1400 415 c0 -184 2 -215 15 -215 12 0 15 15 15 72 l0 72 73 -72 c40
-40 81 -72 92 -72 15 0 3 17 -48 68 -37 37 -67 72 -67 77 0 5 30 40 67 77 37
38 61 68 52 68 -8 0 -46 -31 -84 -70 -38 -38 -73 -70 -77 -70 -5 0 -8 63 -8
140 0 118 -2 140 -15 140 -13 0 -15 -31 -15 -215z"/>
<path d="M50 410 c0 -180 2 -210 15 -210 12 0 15 19 15 112 l0 113 113 -113
c67 -67 120 -112 132 -112 14 0 -13 33 -95 115 l-115 115 95 95 c69 69 89 95
75 95 -11 0 -59 -39 -112 -92 l-93 -93 0 93 c0 75 -3 92 -15 92 -13 0 -15 -30
-15 -210z"/>
<path d="M460 472 c-123 -62 -98 -253 36 -278 47 -9 118 19 145 58 31 42 35
113 11 158 -20 38 -89 80 -132 80 -14 0 -41 -8 -60 -18z m120 -27 c41 -21 60
-53 60 -103 0 -73 -50 -122 -126 -122 -65 0 -126 81 -109 147 3 14 21 41 40
60 37 37 85 44 135 18z"/>
<path d="M815 483 c-36 -10 -77 -45 -91 -79 -20 -48 -19 -204 1 -204 12 0 15
17 15 96 0 96 0 96 34 130 29 29 41 34 79 34 86 0 127 -59 127 -185 0 -43 4
-75 10 -75 6 0 10 37 10 93 0 100 -15 140 -64 172 -27 18 -89 27 -121 18z"/>
<path d="M1150 479 c-40 -16 -80 -60 -91 -101 -30 -113 88 -222 189 -174 24
12 32 20 25 27 -8 8 -17 7 -31 0 -39 -21 -80 -13 -116 22 -19 17 -37 42 -41
55 l-6 22 135 0 c154 0 152 -1 116 78 -29 65 -113 98 -180 71z m110 -34 c25
-13 60 -60 60 -80 0 -3 -54 -5 -120 -5 -66 0 -120 2 -120 5 0 4 7 19 15 35 29
55 105 76 165 45z"/>
<path d="M1686 469 c-20 -16 -26 -29 -26 -59 0 -50 35 -80 94 -80 48 0 66 -13
66 -50 0 -40 -18 -50 -92 -50 -54 0 -68 -3 -68 -15 0 -12 13 -15 59 -15 77 0
105 11 120 49 26 61 -14 111 -89 111 -43 0 -60 15 -60 50 0 40 18 50 87 50 49
0 63 3 63 15 0 25 -120 21 -154 -6z"/>
<path d="M1900 408 c0 -46 4 -100 9 -121 19 -81 91 -117 156 -78 l35 20 0 -43
c0 -46 -34 -96 -65 -96 -8 0 -15 -7 -15 -16 0 -22 38 -9 75 27 l30 29 3 180
c3 159 2 180 -12 180 -14 0 -16 -16 -16 -100 0 -136 -18 -171 -88 -170 -62 1
-82 42 -82 169 0 83 -3 101 -15 101 -12 0 -15 -16 -15 -82z"/>
<path d="M2220 477 c-30 -15 -45 -62 -31 -100 12 -30 45 -47 95 -47 39 0 56
-15 56 -50 0 -40 -18 -50 -87 -50 -49 0 -63 -3 -63 -15 0 -12 14 -15 64 -15
82 0 116 23 116 80 0 50 -35 80 -94 80 -48 0 -66 13 -66 50 0 40 18 50 87 50
49 0 63 3 63 15 0 19 -103 21 -140 2z"/>
</g>
</svg>
